<svg xmlns="http://www.w3.org/2000/svg" viewBox="0 0 512 512" role="img" aria-label="Ashes to Crown ember crest">
  <defs>
    <linearGradient id="g" x1="0" y1="0" x2="1" y2="1">
      <stop offset="0" stop-color="#252b28"/>
      <stop offset="1" stop-color="#080b0c"/>
    </linearGradient>
  </defs>
  <rect width="512" height="512" rx="92" fill="url(#g)"/>
  <path d="M96 96h320v320H96z" fill="none" stroke="#c5a667" stroke-width="18"/>
  <path d="M256 91c40 62 91 92 82 163-5 44-38 85-82 117-44-32-77-73-82-117-9-71 42-101 82-163Z" fill="#a8492f"/>
  <path d="M256 178c22 35 47 53 42 91-3 24-20 48-42 66-22-18-39-42-42-66-5-38 20-56 42-91Z" fill="#e7b567"/>
  <path d="m136 403 120-56 120 56" fill="none" stroke="#e5d6b6" stroke-width="18" stroke-linecap="square"/>
</svg>
